<svg width="698" height="163" viewBox="0 0 698 163" fill="none" xmlns="http://www.w3.org/2000/svg">
<path d="M31.4732 161.21H0.817607L69.2291 0.0426159H101.35L171.226 161.21H139.106L120.735 117.255H67.2004L77.4565 91.3331H109.915L84.5569 30.8109L31.4732 161.21ZM188.132 155.575V130.78C201.281 136.039 216.458 138.669 233.665 138.669C246.513 138.669 252.937 134.536 252.937 126.271C252.937 118.382 248.617 114.437 239.976 114.437H218.562C194.519 114.437 182.497 102.604 182.497 78.9356C182.497 54.1407 200.041 41.7432 235.13 41.7432C250.007 41.7432 264.02 43.9973 277.168 48.5055V73.3004C264.02 68.0409 249.744 65.4111 234.341 65.4111C218.187 65.4111 210.109 69.5436 210.109 77.8086C210.109 85.6979 214.805 89.6425 224.197 89.6425H243.357C269.655 89.6425 282.804 101.476 282.804 125.144C282.804 149.939 266.048 162.337 232.538 162.337C216.083 162.337 201.281 160.083 188.132 155.575ZM302.076 23.7105H324.166L328.674 42.8702H358.428V66.5381H331.943V120.974C331.943 132.019 336.714 137.542 346.256 137.542H358.428V161.21H331.83C311.994 161.21 302.076 150.578 302.076 129.314V23.7105ZM378.828 161.21V42.8702H401.932L405.651 57.9726C416.02 47.9044 426.99 42.8702 438.561 42.8702V66.989C427.441 66.989 417.485 71.6098 408.694 80.8516V161.21H378.828ZM479.698 101.589C479.698 126.309 489.278 138.669 508.438 138.669C527.597 138.669 537.177 126.309 537.177 101.589C537.177 77.4705 527.597 65.4111 508.438 65.4111C489.278 65.4111 479.698 77.4705 479.698 101.589ZM449.831 102.04C449.831 62.3681 469.367 42.5321 508.438 42.5321C547.508 42.5321 567.044 62.3681 567.044 102.04C567.044 141.637 547.508 161.435 508.438 161.435C469.517 161.435 449.982 141.637 449.831 102.04ZM589.585 161.21V42.8702H612.689L616.408 60.2267C627.754 48.6557 640.677 42.8702 655.179 42.8702C683.204 42.8702 697.217 57.4467 697.217 86.5995V161.21H667.351V86.5995C667.351 73.5258 660.851 66.989 647.853 66.989C638.16 66.989 628.693 70.8585 619.451 78.5975V161.21H589.585Z" fill="white"/>
</svg>
