<svg width="314" height="31" viewBox="0 0 314 31" fill="none" xmlns="http://www.w3.org/2000/svg">
<path d="M25.5619 15.7563C25.5619 17.8509 25.2128 19.7743 24.5145 21.5265C23.8163 23.2786 22.8348 24.787 21.5701 26.0517C20.3054 27.3164 18.7839 28.2979 17.0054 28.9961C15.2269 29.6943 13.2508 30.0435 11.0771 30.0435H0.188793V1.46911H11.0771C13.2508 1.46911 15.2269 1.82481 17.0054 2.5362C18.7839 3.23443 20.3054 4.21589 21.5701 5.48059C22.8348 6.73212 23.8163 8.23395 24.5145 9.98608C25.2128 11.7382 25.5619 13.6616 25.5619 15.7563ZM20.1078 15.7563C20.1078 14.1886 19.8971 12.7856 19.4755 11.5472C19.0671 10.2957 18.4677 9.24176 17.6772 8.38545C16.9 7.51597 15.9514 6.85068 14.8317 6.38959C13.725 5.9285 12.4735 5.69796 11.0771 5.69796H5.52425V25.8146H11.0771C12.4735 25.8146 13.725 25.5841 14.8317 25.123C15.9514 24.6619 16.9 24.0032 17.6772 23.1469C18.4677 22.2774 19.0671 21.2235 19.4755 19.9851C19.8971 18.7336 20.1078 17.324 20.1078 15.7563ZM33.8003 9.76872V30.0435H28.8996V9.76872H33.8003ZM34.4722 3.86019C34.4722 4.28176 34.3866 4.67697 34.2153 5.04585C34.044 5.41472 33.8135 5.73748 33.5237 6.01413C33.247 6.29079 32.9177 6.51474 32.5356 6.68601C32.1536 6.84409 31.7452 6.92314 31.3104 6.92314C30.8889 6.92314 30.4871 6.84409 30.105 6.68601C29.7362 6.51474 29.4134 6.29079 29.1367 6.01413C28.8601 5.73748 28.6361 5.41472 28.4649 5.04585C28.3068 4.67697 28.2277 4.28176 28.2277 3.86019C28.2277 3.42545 28.3068 3.01706 28.4649 2.63501C28.6361 2.25297 28.8601 1.92362 29.1367 1.64696C29.4134 1.37031 29.7362 1.15294 30.105 0.994851C30.4871 0.82359 30.8889 0.737959 31.3104 0.737959C31.7452 0.737959 32.1536 0.82359 32.5356 0.994851C32.9177 1.15294 33.247 1.37031 33.5237 1.64696C33.8135 1.92362 34.044 2.25297 34.2153 2.63501C34.3866 3.01706 34.4722 3.42545 34.4722 3.86019ZM50.7515 13.7209C50.6198 13.9317 50.4815 14.0832 50.3365 14.1754C50.1916 14.2545 50.0072 14.294 49.7832 14.294C49.5461 14.294 49.2892 14.2281 49.0126 14.0964C48.7491 13.9646 48.4395 13.8197 48.0838 13.6616C47.7281 13.4904 47.3197 13.3389 46.8586 13.2071C46.4107 13.0754 45.8772 13.0095 45.258 13.0095C44.2963 13.0095 43.5388 13.2137 42.9855 13.6221C42.4453 14.0305 42.1753 14.564 42.1753 15.2227C42.1753 15.6575 42.3136 16.0264 42.5902 16.3294C42.8801 16.6192 43.2555 16.8761 43.7166 17.1C44.1909 17.324 44.7244 17.5282 45.3173 17.7126C45.9101 17.8839 46.5095 18.0749 47.1155 18.2857C47.7347 18.4965 48.3407 18.7402 48.9335 19.0168C49.5263 19.2803 50.0533 19.6228 50.5144 20.0444C50.9887 20.4528 51.3641 20.9468 51.6408 21.5265C51.9306 22.1061 52.0755 22.8044 52.0755 23.6211C52.0755 24.596 51.8977 25.4984 51.542 26.3284C51.1994 27.1452 50.6857 27.8566 50.0006 28.4626C49.3156 29.0554 48.4658 29.5231 47.4514 29.8656C46.4502 30.195 45.2909 30.3596 43.9735 30.3596C43.2753 30.3596 42.5902 30.2938 41.9184 30.162C41.2597 30.0435 40.6207 29.8722 40.0016 29.6482C39.3956 29.4243 38.8291 29.1608 38.3021 28.8578C37.7883 28.5548 37.3338 28.2254 36.9386 27.8698L38.065 26.0122C38.2099 25.7883 38.3812 25.617 38.5788 25.4984C38.7764 25.3799 39.0267 25.3206 39.3297 25.3206C39.6327 25.3206 39.9159 25.4062 40.1794 25.5775C40.4561 25.7487 40.7722 25.9332 41.1279 26.1308C41.4836 26.3284 41.8986 26.5128 42.3729 26.6841C42.8603 26.8554 43.4729 26.941 44.2106 26.941C44.7903 26.941 45.2843 26.8751 45.6927 26.7434C46.1143 26.5985 46.4568 26.414 46.7203 26.1901C46.9969 25.9661 47.1945 25.7092 47.3131 25.4194C47.4449 25.1164 47.5107 24.8068 47.5107 24.4906C47.5107 24.0164 47.3658 23.6277 47.076 23.3247C46.7993 23.0217 46.4239 22.7583 45.9496 22.5343C45.4885 22.3103 44.955 22.1127 44.349 21.9415C43.7561 21.757 43.1436 21.5594 42.5112 21.3486C41.892 21.1379 41.2794 20.8941 40.6734 20.6175C40.0806 20.3277 39.5471 19.9654 39.0728 19.5306C38.6117 19.0959 38.2362 18.5623 37.9464 17.93C37.6698 17.2976 37.5314 16.5335 37.5314 15.6377C37.5314 14.8078 37.6961 14.0173 38.0255 13.2664C38.3548 12.5155 38.8357 11.8634 39.468 11.3101C40.1135 10.7436 40.9106 10.2957 41.8591 9.96633C42.8208 9.6238 43.9274 9.45254 45.1789 9.45254C46.5754 9.45254 47.8467 9.68308 48.9928 10.1442C50.1389 10.6053 51.094 11.2113 51.8581 11.9622L50.7515 13.7209ZM69.8783 14.0568C69.7334 14.2413 69.5884 14.3862 69.4435 14.4916C69.3118 14.597 69.1142 14.6497 68.8507 14.6497C68.6004 14.6497 68.3567 14.5772 68.1195 14.4323C67.8824 14.2742 67.5992 14.103 67.2698 13.9185C66.9405 13.7209 66.5453 13.5496 66.0842 13.4047C65.6363 13.2466 65.0764 13.1676 64.4045 13.1676C63.5482 13.1676 62.7973 13.3257 62.1517 13.6419C61.5062 13.9449 60.9661 14.3862 60.5313 14.9658C60.1098 15.5455 59.7936 16.2503 59.5828 17.0803C59.372 17.8971 59.2666 18.8258 59.2666 19.8666C59.2666 20.9468 59.3786 21.9085 59.6026 22.7517C59.8397 23.5948 60.1756 24.3062 60.6104 24.8858C61.0451 25.4523 61.5721 25.8871 62.1913 26.1901C62.8104 26.4799 63.5087 26.6248 64.2859 26.6248C65.0632 26.6248 65.6889 26.5326 66.1632 26.3482C66.6506 26.1505 67.059 25.9398 67.3884 25.7158C67.7177 25.4787 68.001 25.2679 68.2381 25.0835C68.4884 24.8858 68.7651 24.787 69.0681 24.787C69.4633 24.787 69.7597 24.9385 69.9573 25.2415L71.3603 27.02C70.8202 27.6524 70.234 28.1859 69.6016 28.6207C68.9693 29.0422 68.3106 29.3848 67.6255 29.6482C66.9536 29.8985 66.2554 30.0764 65.5309 30.1818C64.8195 30.2872 64.1081 30.3399 63.3967 30.3399C62.1451 30.3399 60.9661 30.1093 59.8595 29.6482C58.7529 29.174 57.7846 28.4889 56.9546 27.5931C56.1246 26.6973 55.4659 25.6038 54.9785 24.3128C54.5042 23.0086 54.2671 21.5265 54.2671 19.8666C54.2671 18.3779 54.4779 17.0012 54.8995 15.7365C55.3342 14.4586 55.9666 13.3586 56.7965 12.4364C57.6265 11.5011 58.654 10.7699 59.8792 10.243C61.1044 9.71602 62.514 9.45254 64.1081 9.45254C65.6231 9.45254 66.9471 9.69626 68.08 10.1837C69.2262 10.6711 70.2537 11.3694 71.1627 12.2784L69.8783 14.0568ZM82.6491 9.45254C84.1509 9.45254 85.5144 9.69626 86.7396 10.1837C87.978 10.6711 89.0319 11.3628 89.9014 12.2586C90.784 13.1544 91.4625 14.2479 91.9367 15.5389C92.411 16.83 92.6481 18.2725 92.6481 19.8666C92.6481 21.4738 92.411 22.9229 91.9367 24.214C91.4625 25.505 90.784 26.6051 89.9014 27.5141C89.0319 28.4231 87.978 29.1213 86.7396 29.6087C85.5144 30.0962 84.1509 30.3399 82.6491 30.3399C81.1341 30.3399 79.7574 30.0962 78.5191 29.6087C77.2807 29.1213 76.2202 28.4231 75.3375 27.5141C74.4681 26.6051 73.7896 25.505 73.3022 24.214C72.8279 22.9229 72.5908 21.4738 72.5908 19.8666C72.5908 18.2725 72.8279 16.83 73.3022 15.5389C73.7896 14.2479 74.4681 13.1544 75.3375 12.2586C76.2202 11.3628 77.2807 10.6711 78.5191 10.1837C79.7574 9.69626 81.1341 9.45254 82.6491 9.45254ZM82.6491 26.5853C84.3354 26.5853 85.5803 26.0188 86.3839 24.8858C87.2007 23.7529 87.6091 22.093 87.6091 19.9061C87.6091 17.7192 87.2007 16.0527 86.3839 14.9066C85.5803 13.7604 84.3354 13.1874 82.6491 13.1874C80.9365 13.1874 79.6652 13.767 78.8352 14.9263C78.0184 16.0725 77.6101 17.7324 77.6101 19.9061C77.6101 22.0798 78.0184 23.7397 78.8352 24.8858C79.6652 26.0188 80.9365 26.5853 82.6491 26.5853ZM100.581 13.2862C101.213 12.0742 101.964 11.1256 102.834 10.4406C103.703 9.74237 104.731 9.39326 105.916 9.39326C106.852 9.39326 107.603 9.59745 108.169 10.0058L107.853 13.6616C107.787 13.8988 107.688 14.07 107.557 14.1754C107.438 14.2676 107.273 14.3137 107.063 14.3137C106.865 14.3137 106.568 14.2808 106.173 14.2149C105.791 14.1491 105.416 14.1161 105.047 14.1161C104.507 14.1161 104.026 14.1952 103.604 14.3533C103.183 14.5113 102.801 14.7419 102.458 15.0449C102.129 15.3347 101.832 15.6904 101.569 16.112C101.319 16.5335 101.082 17.0144 100.858 17.5545V30.0435H95.9766V9.76872H98.842C99.3426 9.76872 99.6917 9.86093 99.8893 10.0454C100.087 10.2166 100.219 10.5328 100.285 10.9939L100.581 13.2862ZM122.511 14.9461C121.957 14.2742 121.351 13.8 120.693 13.5233C120.047 13.2466 119.349 13.1083 118.598 13.1083C117.86 13.1083 117.195 13.2466 116.602 13.5233C116.009 13.8 115.502 14.2215 115.081 14.788C114.659 15.3413 114.336 16.0527 114.112 16.9222C113.888 17.7785 113.776 18.7929 113.776 19.9654C113.776 21.151 113.869 22.1588 114.053 22.9888C114.251 23.8056 114.527 24.4775 114.883 25.0044C115.239 25.5182 115.673 25.8937 116.187 26.1308C116.701 26.3547 117.274 26.4667 117.906 26.4667C118.921 26.4667 119.784 26.2559 120.495 25.8344C121.206 25.4128 121.878 24.8134 122.511 24.0361V14.9461ZM127.392 0.678675V30.0435H124.408C123.762 30.0435 123.354 29.747 123.183 29.1542L122.768 27.1979C121.951 28.1332 121.009 28.8907 119.942 29.4704C118.888 30.05 117.656 30.3399 116.246 30.3399C115.14 30.3399 114.125 30.1093 113.203 29.6482C112.281 29.1871 111.484 28.5219 110.812 27.6524C110.153 26.7697 109.64 25.6829 109.271 24.3918C108.915 23.1008 108.737 21.6253 108.737 19.9654C108.737 18.4635 108.941 17.0671 109.35 15.776C109.758 14.485 110.344 13.3652 111.109 12.4167C111.873 11.4682 112.788 10.7304 113.855 10.2035C114.922 9.66332 116.121 9.39326 117.452 9.39326C118.585 9.39326 119.553 9.57111 120.357 9.9268C121.16 10.2825 121.878 10.7634 122.511 11.3694V0.678675H127.392ZM151.087 15.8353C152.062 15.8353 152.911 15.7168 153.636 15.4796C154.361 15.2293 154.96 14.8802 155.434 14.4323C155.922 13.9712 156.284 13.4179 156.521 12.7724C156.758 12.1137 156.877 11.3825 156.877 10.5789C156.877 9.81482 156.758 9.12319 156.521 8.50401C156.284 7.88484 155.928 7.35788 155.454 6.92314C154.98 6.4884 154.38 6.15905 153.656 5.93509C152.931 5.69796 152.075 5.57939 151.087 5.57939H147.115V15.8353H151.087ZM151.087 1.46911C152.997 1.46911 154.65 1.69307 156.047 2.14099C157.443 2.5889 158.596 3.21467 159.505 4.01828C160.414 4.82189 161.086 5.78359 161.521 6.90338C161.969 8.02316 162.192 9.24834 162.192 10.5789C162.192 11.9622 161.962 13.2335 161.501 14.3928C161.04 15.5389 160.348 16.527 159.426 17.3569C158.504 18.1869 157.344 18.8324 155.948 19.2935C154.565 19.7546 152.944 19.9851 151.087 19.9851H147.115V30.0435H141.799V1.46911H151.087ZM169.398 13.2862C170.031 12.0742 170.782 11.1256 171.651 10.4406C172.521 9.74237 173.548 9.39326 174.734 9.39326C175.669 9.39326 176.42 9.59745 176.987 10.0058L176.67 13.6616C176.605 13.8988 176.506 14.07 176.374 14.1754C176.256 14.2676 176.091 14.3137 175.88 14.3137C175.682 14.3137 175.386 14.2808 174.991 14.2149C174.609 14.1491 174.233 14.1161 173.864 14.1161C173.324 14.1161 172.843 14.1952 172.422 14.3533C172 14.5113 171.618 14.7419 171.276 15.0449C170.946 15.3347 170.65 15.6904 170.387 16.112C170.136 16.5335 169.899 17.0144 169.675 17.5545V30.0435H164.794V9.76872H167.659C168.16 9.76872 168.509 9.86093 168.707 10.0454C168.904 10.2166 169.036 10.5328 169.102 10.9939L169.398 13.2862ZM191.626 17.5743C191.626 16.9419 191.533 16.3491 191.349 15.7958C191.178 15.2293 190.914 14.7353 190.558 14.3137C190.203 13.8922 189.748 13.5628 189.195 13.3257C188.655 13.0754 188.022 12.9502 187.298 12.9502C185.888 12.9502 184.775 13.352 183.958 14.1556C183.155 14.9593 182.641 16.0988 182.417 17.5743H191.626ZM182.318 20.5187C182.397 21.5594 182.582 22.4618 182.871 23.2259C183.161 23.9768 183.543 24.6026 184.018 25.1032C184.492 25.5907 185.052 25.9595 185.697 26.2098C186.356 26.447 187.081 26.5655 187.871 26.5655C188.661 26.5655 189.34 26.4733 189.906 26.2889C190.486 26.1044 190.987 25.9002 191.408 25.6763C191.843 25.4523 192.218 25.2481 192.535 25.0637C192.864 24.8793 193.18 24.787 193.483 24.787C193.891 24.787 194.194 24.9385 194.392 25.2415L195.795 27.02C195.255 27.6524 194.649 28.1859 193.977 28.6207C193.305 29.0422 192.6 29.3848 191.863 29.6482C191.138 29.8985 190.394 30.0764 189.63 30.1818C188.879 30.2872 188.148 30.3399 187.436 30.3399C186.027 30.3399 184.716 30.1093 183.504 29.6482C182.292 29.174 181.238 28.4823 180.342 27.5733C179.446 26.6512 178.741 25.5182 178.228 24.1745C177.714 22.8175 177.457 21.2498 177.457 19.4713C177.457 18.0881 177.681 16.7904 178.129 15.5784C178.577 14.3533 179.216 13.2928 180.046 12.3969C180.889 11.4879 181.91 10.7699 183.109 10.243C184.321 9.71602 185.684 9.45254 187.199 9.45254C188.477 9.45254 189.656 9.65674 190.736 10.0651C191.817 10.4735 192.745 11.0729 193.523 11.8634C194.3 12.6406 194.906 13.6023 195.341 14.7485C195.788 15.8814 196.012 17.1791 196.012 18.6414C196.012 19.3791 195.933 19.8797 195.775 20.1432C195.617 20.3935 195.314 20.5187 194.866 20.5187H182.318ZM217.057 9.76872L209.015 30.0435H204.588L196.545 9.76872H200.577C200.945 9.76872 201.248 9.85435 201.486 10.0256C201.736 10.1969 201.901 10.4142 201.98 10.6777L205.892 21.5067C206.103 22.1391 206.288 22.7583 206.446 23.3643C206.604 23.9703 206.742 24.5763 206.861 25.1823C206.992 24.5763 207.137 23.9703 207.295 23.3643C207.453 22.7583 207.644 22.1391 207.868 21.5067L211.86 10.6777C211.952 10.4142 212.117 10.1969 212.354 10.0256C212.591 9.85435 212.875 9.76872 213.204 9.76872H217.057ZM224.322 9.76872V30.0435H219.421V9.76872H224.322ZM224.994 3.86019C224.994 4.28176 224.908 4.67697 224.737 5.04585C224.566 5.41472 224.335 5.73748 224.046 6.01413C223.769 6.29079 223.44 6.51474 223.057 6.68601C222.675 6.84409 222.267 6.92314 221.832 6.92314C221.411 6.92314 221.009 6.84409 220.627 6.68601C220.258 6.51474 219.935 6.29079 219.659 6.01413C219.382 5.73748 219.158 5.41472 218.987 5.04585C218.829 4.67697 218.75 4.28176 218.75 3.86019C218.75 3.42545 218.829 3.01706 218.987 2.63501C219.158 2.25297 219.382 1.92362 219.659 1.64696C219.935 1.37031 220.258 1.15294 220.627 0.994851C221.009 0.82359 221.411 0.737959 221.832 0.737959C222.267 0.737959 222.675 0.82359 223.057 0.994851C223.44 1.15294 223.769 1.37031 224.046 1.64696C224.335 1.92362 224.566 2.25297 224.737 2.63501C224.908 3.01706 224.994 3.42545 224.994 3.86019ZM241.965 17.5743C241.965 16.9419 241.873 16.3491 241.688 15.7958C241.517 15.2293 241.254 14.7353 240.898 14.3137C240.542 13.8922 240.088 13.5628 239.534 13.3257C238.994 13.0754 238.362 12.9502 237.637 12.9502C236.228 12.9502 235.115 13.352 234.298 14.1556C233.494 14.9593 232.98 16.0988 232.756 17.5743H241.965ZM232.658 20.5187C232.737 21.5594 232.921 22.4618 233.211 23.2259C233.501 23.9768 233.883 24.6026 234.357 25.1032C234.831 25.5907 235.391 25.9595 236.037 26.2098C236.695 26.447 237.42 26.5655 238.21 26.5655C239.001 26.5655 239.679 26.4733 240.246 26.2889C240.825 26.1044 241.326 25.9002 241.748 25.6763C242.182 25.4523 242.558 25.2481 242.874 25.0637C243.203 24.8793 243.52 24.787 243.823 24.787C244.231 24.787 244.534 24.9385 244.732 25.2415L246.135 27.02C245.594 27.6524 244.988 28.1859 244.317 28.6207C243.645 29.0422 242.94 29.3848 242.202 29.6482C241.478 29.8985 240.733 30.0764 239.969 30.1818C239.218 30.2872 238.487 30.3399 237.776 30.3399C236.366 30.3399 235.055 30.1093 233.843 29.6482C232.631 29.174 231.577 28.4823 230.682 27.5733C229.786 26.6512 229.081 25.5182 228.567 24.1745C228.053 22.8175 227.796 21.2498 227.796 19.4713C227.796 18.0881 228.02 16.7904 228.468 15.5784C228.916 14.3533 229.555 13.2928 230.385 12.3969C231.228 11.4879 232.249 10.7699 233.448 10.243C234.66 9.71602 236.024 9.45254 237.539 9.45254C238.816 9.45254 239.996 9.65674 241.076 10.0651C242.156 10.4735 243.085 11.0729 243.862 11.8634C244.639 12.6406 245.245 13.6023 245.68 14.7485C246.128 15.8814 246.352 17.1791 246.352 18.6414C246.352 19.3791 246.273 19.8797 246.115 20.1432C245.957 20.3935 245.654 20.5187 245.206 20.5187H232.658ZM278.299 9.76872L271.857 30.0435H267.944C267.497 30.0435 267.187 29.7536 267.016 29.174L263.38 17.4557C263.261 17.0605 263.149 16.6719 263.044 16.2898C262.952 15.8946 262.873 15.4994 262.807 15.1042C262.728 15.4994 262.635 15.9012 262.53 16.3096C262.438 16.7048 262.332 17.1 262.214 17.4952L258.519 29.174C258.36 29.7536 258.011 30.0435 257.471 30.0435H253.717L247.294 9.76872H251.187C251.543 9.76872 251.846 9.85435 252.096 10.0256C252.347 10.1969 252.511 10.4142 252.59 10.6777L255.495 21.5067C255.64 22.0996 255.765 22.6792 255.871 23.2457C255.989 23.8122 256.088 24.3786 256.167 24.9451C256.312 24.3786 256.463 23.8122 256.621 23.2457C256.793 22.6792 256.971 22.0996 257.155 21.5067L260.514 10.6382C260.593 10.3747 260.745 10.1573 260.969 9.98608C261.206 9.81482 261.489 9.72919 261.819 9.72919H263.973C264.315 9.72919 264.605 9.81482 264.842 9.98608C265.092 10.1573 265.257 10.3747 265.336 10.6382L268.597 21.5067C268.768 22.0996 268.926 22.6858 269.071 23.2654C269.229 23.8319 269.38 24.3984 269.525 24.9649C269.697 23.8451 269.94 22.6924 270.257 21.5067L273.24 10.6777C273.333 10.4142 273.497 10.1969 273.734 10.0256C273.972 9.85435 274.255 9.76872 274.584 9.76872H278.299ZM293.394 17.5743C293.394 16.9419 293.302 16.3491 293.118 15.7958C292.947 15.2293 292.683 14.7353 292.327 14.3137C291.972 13.8922 291.517 13.5628 290.964 13.3257C290.424 13.0754 289.791 12.9502 289.067 12.9502C287.657 12.9502 286.544 13.352 285.727 14.1556C284.924 14.9593 284.41 16.0988 284.186 17.5743H293.394ZM284.087 20.5187C284.166 21.5594 284.351 22.4618 284.64 23.2259C284.93 23.9768 285.312 24.6026 285.786 25.1032C286.261 25.5907 286.821 25.9595 287.466 26.2098C288.125 26.447 288.849 26.5655 289.64 26.5655C290.43 26.5655 291.109 26.4733 291.675 26.2889C292.255 26.1044 292.756 25.9002 293.177 25.6763C293.612 25.4523 293.987 25.2481 294.303 25.0637C294.633 24.8793 294.949 24.787 295.252 24.787C295.66 24.787 295.963 24.9385 296.161 25.2415L297.564 27.02C297.024 27.6524 296.418 28.1859 295.746 28.6207C295.074 29.0422 294.369 29.3848 293.632 29.6482C292.907 29.8985 292.163 30.0764 291.399 30.1818C290.648 30.2872 289.917 30.3399 289.205 30.3399C287.796 30.3399 286.485 30.1093 285.273 29.6482C284.061 29.174 283.007 28.4823 282.111 27.5733C281.215 26.6512 280.51 25.5182 279.997 24.1745C279.483 22.8175 279.226 21.2498 279.226 19.4713C279.226 18.0881 279.45 16.7904 279.898 15.5784C280.346 14.3533 280.985 13.2928 281.815 12.3969C282.658 11.4879 283.679 10.7699 284.877 10.243C286.089 9.71602 287.453 9.45254 288.968 9.45254C290.246 9.45254 291.425 9.65674 292.505 10.0651C293.585 10.4735 294.514 11.0729 295.292 11.8634C296.069 12.6406 296.675 13.6023 297.11 14.7485C297.557 15.8814 297.781 17.1791 297.781 18.6414C297.781 19.3791 297.702 19.8797 297.544 20.1432C297.386 20.3935 297.083 20.5187 296.635 20.5187H284.087ZM305.653 13.2862C306.286 12.0742 307.037 11.1256 307.906 10.4406C308.776 9.74237 309.803 9.39326 310.989 9.39326C311.924 9.39326 312.675 9.59745 313.242 10.0058L312.925 13.6616C312.859 13.8988 312.761 14.07 312.629 14.1754C312.51 14.2676 312.346 14.3137 312.135 14.3137C311.937 14.3137 311.641 14.2808 311.246 14.2149C310.864 14.1491 310.488 14.1161 310.119 14.1161C309.579 14.1161 309.098 14.1952 308.677 14.3533C308.255 14.5113 307.873 14.7419 307.531 15.0449C307.201 15.3347 306.905 15.6904 306.641 16.112C306.391 16.5335 306.154 17.0144 305.93 17.5545V30.0435H301.049V9.76872H303.914C304.415 9.76872 304.764 9.86093 304.962 10.0454C305.159 10.2166 305.291 10.5328 305.357 10.9939L305.653 13.2862Z" fill="white"/>
</svg>
