<svg width="405" height="459" viewBox="0 0 405 459" fill="none" xmlns="http://www.w3.org/2000/svg">
<path d="M357.632 0H47.3681C21.2043 0 0 21.2068 0 47.3736V357.674C0 383.841 21.2043 405.047 47.3681 405.047H309.893L297.616 362.661L327.184 389.929L355.096 415.66L405 459V357.674V334.636V47.3736C405 21.2068 383.796 0 357.632 0Z" fill="#7289DA"/>
<path d="M247.581 89.9638L77.436 260.109L134.175 316.848L304.32 146.703L261.771 104.154L105.816 260.109L99.6499 253.942L255.605 97.9876L247.581 89.9638Z" fill="white"/>
<path d="M128.926 322.097L72.187 265.358L63 331.284L128.926 322.097Z" fill="white"/>
<path d="M253.188 83.5007L275.083 61.6066C280.94 55.7487 290.438 55.7487 296.296 61.6066L331.822 97.1327C337.68 102.991 337.68 112.488 331.822 118.346L309.928 140.24L253.188 83.5007Z" fill="white"/>
</svg>
