<svg width="886" height="126" viewBox="0 0 886 126" fill="none" xmlns="http://www.w3.org/2000/svg">
<path d="M45.7935 1.72337H0V53.135L30.5088 80.504V30.5855H46.8338C57.1995 30.5855 62.2126 35.5973 62.2126 43.5459V81.7381C62.2126 89.6867 57.3718 95.0458 46.8338 95.0458H0V124.078H45.7935C70.3376 124.248 93.3164 111.982 93.3164 83.8147V42.6806C93.3164 14.1717 70.3376 1.72337 45.7935 1.72337ZM202.197 47.5215C192.69 45.4462 186.302 41.9915 185.956 36.1155C186.473 21.9425 208.423 21.4257 221.206 35.0805L241.426 19.5253C228.814 4.14655 214.47 0 199.609 0C177.143 0 155.37 12.6125 155.37 36.6323C155.37 59.9652 173.337 72.4074 193.039 75.519C203.064 76.9011 214.294 80.8728 213.952 87.785C213.088 100.922 186.125 100.229 173.859 85.3679L154.329 103.687C165.735 118.377 181.291 125.808 195.981 125.808C218.442 125.808 243.326 112.847 244.368 89.1685C245.75 59.0998 223.972 51.4931 202.197 47.5215ZM109.917 124.078H140.851V1.72337H109.917V124.078Z" fill="white"/>
<path d="M292.747 126L241 3H272.596L305.16 84.8255L337.724 3H368.192L316.283 126H292.747Z" fill="white"/>
<path d="M374.67 126V3H404.332V126H374.67Z" fill="white"/>
<path d="M420.261 126V3H500.542V27.7745H448.634V51.1532H496.834V75.9277H448.634V101.226H500.542V126H420.261Z" fill="white"/>
<path d="M546.896 126L506.111 3H536.418L560.115 80.1149L585.747 3H606.704L631.207 81.6851L656.033 3H684.567L643.459 126H619.762L595.419 52.0255L570.594 126H546.896Z" fill="white"/>
<path d="M689.079 126V3H769.36V27.7745H717.451V51.1532H765.652V75.9277H717.451V101.226H769.36V126H689.079Z" fill="white"/>
<path d="M783.473 126V3H838.122C851.018 3 860.959 6.43121 867.945 13.2936C875.038 20.0397 878.585 29.461 878.585 41.5574C878.585 50.7461 876.435 58.4809 872.136 64.7617C867.945 70.9262 861.819 75.2298 853.759 77.6723C859.777 79.417 864.613 83.895 868.267 91.1064L886 126H853.436L833.769 86.9191C832.479 84.4766 830.814 82.7319 828.772 81.6851C826.837 80.6383 824.58 80.1149 822.001 80.1149H813.135V126H783.473ZM813.135 57.434H832.802C844.516 57.434 850.373 52.4326 850.373 42.4298C850.373 32.5433 844.516 27.6 832.802 27.6H813.135V57.434Z" fill="white"/>
</svg>
