<svg width="277" height="277" viewBox="0 0 277 277" fill="none" xmlns="http://www.w3.org/2000/svg">
<rect x="0.000732422" y="0.00012207" width="277" height="277" fill="#444444"/>
<path d="M211.728 32H67.2715C55.0898 32 45.2172 41.8872 45.2172 54.0871V198.759C45.2172 210.958 55.0898 220.846 67.2715 220.846H189.502L183.785 201.084L197.552 213.797L210.548 225.793L233.783 246V198.759V188.018V54.0871C233.783 41.8872 223.91 32 211.728 32Z" fill="#7289DA"/>
<path d="M83.8074 180.484V154.953L164.604 74.3066C166.907 72.0039 169.736 70.8525 173.092 70.8525C176.444 70.8525 179.272 72.0039 181.574 74.3066L189.984 82.8669C192.287 85.1696 193.439 87.973 193.439 91.2769C193.439 94.5809 192.287 97.3842 189.984 99.687L109.338 180.484H83.8074ZM173.014 99.687L181.424 91.2769L173.014 82.8669L164.604 91.2769L173.014 99.687Z" fill="white"/>
</svg>
