<svg width="178" height="197" viewBox="0 0 178 197" fill="none" xmlns="http://www.w3.org/2000/svg">
<path d="M7.81762 196.528H0L17.4459 155H25.6372L43.4566 196.528H35.2655L30.5807 185.202H16.9286L19.544 178.523H27.8214L21.3547 162.928L7.81762 196.528ZM47.7679 195.076V188.687C51.121 190.042 54.9914 190.72 59.3794 190.72C62.6558 190.72 64.2941 189.655 64.2941 187.525C64.2941 185.492 63.1924 184.476 60.9888 184.476H55.5279C49.3966 184.476 46.3308 181.427 46.3308 175.328C46.3308 168.939 50.8048 165.745 59.753 165.745C63.5469 165.745 67.1204 166.326 70.4733 167.487V173.876C67.1204 172.521 63.4798 171.843 59.5518 171.843C55.4323 171.843 53.3723 172.908 53.3723 175.038C53.3723 177.071 54.5699 178.087 56.9649 178.087H61.851C68.5574 178.087 71.9106 181.136 71.9106 187.235C71.9106 193.624 67.6375 196.818 59.092 196.818C54.8958 196.818 51.121 196.237 47.7679 195.076ZM76.8252 161.098H82.4585L83.6081 166.035H91.1958V172.134H84.4417V186.16C84.4417 189.006 85.6584 190.429 88.0917 190.429H91.1958V196.528H84.4129C79.3544 196.528 76.8252 193.788 76.8252 188.309V161.098ZM96.3981 196.528V166.035H102.29L103.238 169.927C105.883 167.332 108.68 166.035 111.631 166.035V172.25C108.795 172.25 106.256 173.441 104.014 175.822V196.528H96.3981ZM122.121 181.165C122.121 187.535 124.564 190.72 129.45 190.72C134.336 190.72 136.779 187.535 136.779 181.165C136.779 174.951 134.336 171.843 129.45 171.843C124.564 171.843 122.121 174.951 122.121 181.165ZM114.505 181.282C114.505 171.059 119.487 165.948 129.45 165.948C139.414 165.948 144.396 171.059 144.396 181.282C144.396 191.484 139.414 196.586 129.45 196.586C119.525 196.586 114.543 191.484 114.505 181.282ZM150.144 196.528V166.035H156.036L156.984 170.508C159.878 167.526 163.173 166.035 166.872 166.035C174.018 166.035 177.592 169.791 177.592 177.303V196.528H169.976V177.303C169.976 173.934 168.318 172.25 165.003 172.25C162.531 172.25 160.117 173.247 157.76 175.241V196.528H150.144Z" fill="white"/>
<path d="M159 0H19V140H159V0Z" fill="url(#paint0_linear_302_38)"/>
<path d="M64.9928 94.0072H19V140H64.9928V94.0072Z" fill="#444444"/>
<path d="M32.0334 131.913H26.2925L39.1041 101.731H45.1195L58.2056 131.913H52.1903L48.7499 123.682H38.7242L40.645 118.827H46.7236L41.9747 107.493L32.0334 131.913Z" fill="#E5E5E5"/>
<defs>
<linearGradient id="paint0_linear_302_38" x1="89" y1="-2.4326e-06" x2="-17.8953" y2="163.249" gradientUnits="userSpaceOnUse">
<stop stop-color="#FF932F"/>
<stop offset="1" stop-color="#FF50ED"/>
</linearGradient>
</defs>
</svg>
