<svg width="350" height="197" viewBox="0 0 350 197" fill="none" xmlns="http://www.w3.org/2000/svg">
<path d="M44.8876 179.713C44.8876 181.807 44.5385 183.731 43.8403 185.483C43.1421 187.235 42.1606 188.744 40.8959 190.008C39.6312 191.273 38.1096 192.254 36.3311 192.953C34.5526 193.651 32.5765 194 30.4028 194H19.5145V165.426H30.4028C32.5765 165.426 34.5526 165.781 36.3311 166.493C38.1096 167.191 39.6312 168.172 40.8959 169.437C42.1606 170.689 43.1421 172.19 43.8403 173.943C44.5385 175.695 44.8876 177.618 44.8876 179.713ZM39.4336 179.713C39.4336 178.145 39.2228 176.742 38.8012 175.504C38.3928 174.252 37.7934 173.198 37.003 172.342C36.2257 171.473 35.2772 170.807 34.1574 170.346C33.0508 169.885 31.7993 169.655 30.4028 169.655H24.85V189.771H30.4028C31.7993 189.771 33.0508 189.541 34.1574 189.08C35.2772 188.618 36.2257 187.96 37.003 187.103C37.7934 186.234 38.3928 185.18 38.8012 183.942C39.2228 182.69 39.4336 181.281 39.4336 179.713ZM53.1261 173.725V194H48.2253V173.725H53.1261ZM53.7979 167.817C53.7979 168.238 53.7123 168.634 53.541 169.002C53.3698 169.371 53.1392 169.694 52.8494 169.971C52.5728 170.247 52.2434 170.471 51.8614 170.643C51.4793 170.801 51.0709 170.88 50.6362 170.88C50.2146 170.88 49.8128 170.801 49.4308 170.643C49.0619 170.471 48.7391 170.247 48.4625 169.971C48.1858 169.694 47.9619 169.371 47.7906 169.002C47.6325 168.634 47.5535 168.238 47.5535 167.817C47.5535 167.382 47.6325 166.974 47.7906 166.592C47.9619 166.21 48.1858 165.88 48.4625 165.604C48.7391 165.327 49.0619 165.109 49.4308 164.951C49.8128 164.78 50.2146 164.695 50.6362 164.695C51.0709 164.695 51.4793 164.78 51.8614 164.951C52.2434 165.109 52.5728 165.327 52.8494 165.604C53.1392 165.88 53.3698 166.21 53.541 166.592C53.7123 166.974 53.7979 167.382 53.7979 167.817ZM70.0773 177.677C69.9455 177.888 69.8072 178.04 69.6623 178.132C69.5174 178.211 69.3329 178.251 69.109 178.251C68.8718 178.251 68.615 178.185 68.3383 178.053C68.0748 177.921 67.7652 177.776 67.4095 177.618C67.0538 177.447 66.6454 177.295 66.1844 177.164C65.7364 177.032 65.2029 176.966 64.5837 176.966C63.622 176.966 62.8645 177.17 62.3112 177.579C61.7711 177.987 61.501 178.521 61.501 179.179C61.501 179.614 61.6393 179.983 61.916 180.286C62.2058 180.576 62.5813 180.833 63.0424 181.057C63.5166 181.281 64.0502 181.485 64.643 181.669C65.2358 181.84 65.8352 182.031 66.4412 182.242C67.0604 182.453 67.6664 182.697 68.2593 182.973C68.8521 183.237 69.379 183.579 69.8401 184.001C70.3144 184.409 70.6899 184.903 70.9665 185.483C71.2563 186.063 71.4013 186.761 71.4013 187.578C71.4013 188.553 71.2234 189.455 70.8677 190.285C70.5252 191.102 70.0114 191.813 69.3263 192.419C68.6413 193.012 67.7916 193.48 66.7772 193.822C65.776 194.152 64.6167 194.316 63.2993 194.316C62.601 194.316 61.916 194.25 61.2441 194.119C60.5854 194 59.9465 193.829 59.3273 193.605C58.7213 193.381 58.1548 193.117 57.6279 192.814C57.1141 192.511 56.6596 192.182 56.2644 191.826L57.3907 189.969C57.5356 189.745 57.7069 189.574 57.9045 189.455C58.1021 189.336 58.3524 189.277 58.6554 189.277C58.9584 189.277 59.2417 189.363 59.5052 189.534C59.7818 189.705 60.098 189.89 60.4537 190.087C60.8094 190.285 61.2244 190.469 61.6986 190.641C62.1861 190.812 62.7986 190.898 63.5364 190.898C64.116 190.898 64.6101 190.832 65.0185 190.7C65.44 190.555 65.7826 190.371 66.046 190.147C66.3227 189.923 66.5203 189.666 66.6389 189.376C66.7706 189.073 66.8365 188.763 66.8365 188.447C66.8365 187.973 66.6916 187.584 66.4017 187.281C66.1251 186.978 65.7496 186.715 65.2754 186.491C64.8143 186.267 64.2807 186.069 63.6747 185.898C63.0819 185.714 62.4693 185.516 61.8369 185.305C61.2178 185.094 60.6052 184.851 59.9992 184.574C59.4063 184.284 58.8728 183.922 58.3985 183.487C57.9375 183.052 57.562 182.519 57.2722 181.887C56.9955 181.254 56.8572 180.49 56.8572 179.594C56.8572 178.764 57.0219 177.974 57.3512 177.223C57.6806 176.472 58.1614 175.82 58.7938 175.267C59.4393 174.7 60.2363 174.252 61.1848 173.923C62.1465 173.58 63.2531 173.409 64.5047 173.409C65.9011 173.409 67.1724 173.64 68.3185 174.101C69.4647 174.562 70.4198 175.168 71.1839 175.919L70.0773 177.677ZM89.204 178.013C89.0591 178.198 88.9142 178.343 88.7693 178.448C88.6375 178.554 88.4399 178.606 88.1764 178.606C87.9261 178.606 87.6824 178.534 87.4453 178.389C87.2082 178.231 86.9249 178.059 86.5956 177.875C86.2662 177.677 85.871 177.506 85.4099 177.361C84.962 177.203 84.4021 177.124 83.7302 177.124C82.8739 177.124 82.123 177.282 81.4775 177.598C80.832 177.901 80.2918 178.343 79.8571 178.922C79.4355 179.502 79.1193 180.207 78.9086 181.037C78.6978 181.854 78.5924 182.782 78.5924 183.823C78.5924 184.903 78.7044 185.865 78.9283 186.708C79.1654 187.551 79.5014 188.263 79.9361 188.842C80.3709 189.409 80.8978 189.844 81.517 190.147C82.1362 190.436 82.8344 190.581 83.6117 190.581C84.3889 190.581 85.0147 190.489 85.489 190.305C85.9764 190.107 86.3848 189.896 86.7141 189.672C87.0435 189.435 87.3267 189.224 87.5639 189.04C87.8142 188.842 88.0908 188.744 88.3938 188.744C88.789 188.744 89.0854 188.895 89.2831 189.198L90.6861 190.977C90.146 191.609 89.5597 192.142 88.9274 192.577C88.295 192.999 87.6363 193.341 86.9513 193.605C86.2794 193.855 85.5812 194.033 84.8566 194.138C84.1452 194.244 83.4338 194.296 82.7224 194.296C81.4709 194.296 80.2918 194.066 79.1852 193.605C78.0786 193.131 77.1103 192.445 76.2803 191.55C75.4504 190.654 74.7917 189.56 74.3043 188.269C73.83 186.965 73.5929 185.483 73.5929 183.823C73.5929 182.334 73.8036 180.958 74.2252 179.693C74.66 178.415 75.2923 177.315 76.1223 176.393C76.9522 175.458 77.9798 174.726 79.205 174.2C80.4302 173.673 81.8398 173.409 83.4338 173.409C84.9488 173.409 86.2728 173.653 87.4058 174.14C88.5519 174.628 89.5795 175.326 90.4885 176.235L89.204 178.013ZM101.975 173.409C103.477 173.409 104.84 173.653 106.065 174.14C107.304 174.628 108.358 175.319 109.227 176.215C110.11 177.111 110.788 178.204 111.262 179.495C111.737 180.787 111.974 182.229 111.974 183.823C111.974 185.43 111.737 186.879 111.262 188.171C110.788 189.462 110.11 190.562 109.227 191.471C108.358 192.38 107.304 193.078 106.065 193.565C104.84 194.053 103.477 194.296 101.975 194.296C100.46 194.296 99.0832 194.053 97.8448 193.565C96.6064 193.078 95.5459 192.38 94.6633 191.471C93.7938 190.562 93.1153 189.462 92.6279 188.171C92.1536 186.879 91.9165 185.43 91.9165 183.823C91.9165 182.229 92.1536 180.787 92.6279 179.495C93.1153 178.204 93.7938 177.111 94.6633 176.215C95.5459 175.319 96.6064 174.628 97.8448 174.14C99.0832 173.653 100.46 173.409 101.975 173.409ZM101.975 190.542C103.661 190.542 104.906 189.975 105.71 188.842C106.526 187.709 106.935 186.05 106.935 183.863C106.935 181.676 106.526 180.009 105.71 178.863C104.906 177.717 103.661 177.144 101.975 177.144C100.262 177.144 98.9909 177.724 98.161 178.883C97.3442 180.029 96.9358 181.689 96.9358 183.863C96.9358 186.036 97.3442 187.696 98.161 188.842C98.9909 189.975 100.262 190.542 101.975 190.542ZM119.907 177.243C120.539 176.031 121.29 175.082 122.159 174.397C123.029 173.699 124.056 173.35 125.242 173.35C126.177 173.35 126.928 173.554 127.495 173.962L127.179 177.618C127.113 177.855 127.014 178.027 126.882 178.132C126.764 178.224 126.599 178.27 126.388 178.27C126.191 178.27 125.894 178.237 125.499 178.171C125.117 178.106 124.742 178.073 124.373 178.073C123.833 178.073 123.352 178.152 122.93 178.31C122.509 178.468 122.126 178.698 121.784 179.001C121.455 179.291 121.158 179.647 120.895 180.069C120.644 180.49 120.407 180.971 120.183 181.511V194H115.302V173.725H118.168C118.668 173.725 119.017 173.817 119.215 174.002C119.413 174.173 119.544 174.489 119.61 174.95L119.907 177.243ZM141.836 178.903C141.283 178.231 140.677 177.756 140.018 177.48C139.373 177.203 138.675 177.065 137.924 177.065C137.186 177.065 136.521 177.203 135.928 177.48C135.335 177.756 134.828 178.178 134.406 178.745C133.985 179.298 133.662 180.009 133.438 180.879C133.214 181.735 133.102 182.749 133.102 183.922C133.102 185.108 133.194 186.115 133.379 186.945C133.576 187.762 133.853 188.434 134.209 188.961C134.564 189.475 134.999 189.85 135.513 190.087C136.027 190.311 136.6 190.423 137.232 190.423C138.246 190.423 139.109 190.212 139.821 189.791C140.532 189.369 141.204 188.77 141.836 187.993V178.903ZM146.717 164.635V194H143.733C143.088 194 142.68 193.704 142.508 193.111L142.093 191.154C141.276 192.09 140.335 192.847 139.267 193.427C138.214 194.007 136.982 194.296 135.572 194.296C134.466 194.296 133.451 194.066 132.529 193.605C131.607 193.144 130.81 192.478 130.138 191.609C129.479 190.726 128.965 189.639 128.597 188.348C128.241 187.057 128.063 185.582 128.063 183.922C128.063 182.42 128.267 181.024 128.676 179.733C129.084 178.442 129.67 177.322 130.434 176.373C131.198 175.425 132.114 174.687 133.181 174.16C134.248 173.62 135.447 173.35 136.778 173.35C137.911 173.35 138.879 173.528 139.682 173.883C140.486 174.239 141.204 174.72 141.836 175.326V164.635H146.717ZM170.413 179.792C171.387 179.792 172.237 179.673 172.962 179.436C173.686 179.186 174.286 178.837 174.76 178.389C175.247 177.928 175.61 177.374 175.847 176.729C176.084 176.07 176.203 175.339 176.203 174.535C176.203 173.771 176.084 173.08 175.847 172.461C175.61 171.841 175.254 171.314 174.78 170.88C174.305 170.445 173.706 170.116 172.982 169.892C172.257 169.655 171.401 169.536 170.413 169.536H166.441V179.792H170.413ZM170.413 165.426C172.323 165.426 173.976 165.65 175.373 166.098C176.769 166.545 177.922 167.171 178.831 167.975C179.74 168.778 180.412 169.74 180.846 170.86C181.294 171.98 181.518 173.205 181.518 174.535C181.518 175.919 181.288 177.19 180.827 178.349C180.366 179.495 179.674 180.484 178.752 181.313C177.83 182.143 176.67 182.789 175.274 183.25C173.891 183.711 172.27 183.942 170.413 183.942H166.441V194H161.125V165.426H170.413ZM188.724 177.243C189.357 176.031 190.107 175.082 190.977 174.397C191.846 173.699 192.874 173.35 194.06 173.35C194.995 173.35 195.746 173.554 196.312 173.962L195.996 177.618C195.93 177.855 195.832 178.027 195.7 178.132C195.581 178.224 195.417 178.27 195.206 178.27C195.008 178.27 194.712 178.237 194.317 178.171C193.935 178.106 193.559 178.073 193.19 178.073C192.65 178.073 192.169 178.152 191.748 178.31C191.326 178.468 190.944 178.698 190.601 179.001C190.272 179.291 189.976 179.647 189.712 180.069C189.462 180.49 189.225 180.971 189.001 181.511V194H184.12V173.725H186.985C187.486 173.725 187.835 173.817 188.033 174.002C188.23 174.173 188.362 174.489 188.428 174.95L188.724 177.243ZM210.951 181.531C210.951 180.898 210.859 180.306 210.675 179.752C210.503 179.186 210.24 178.692 209.884 178.27C209.528 177.849 209.074 177.519 208.521 177.282C207.981 177.032 207.348 176.907 206.624 176.907C205.214 176.907 204.101 177.309 203.284 178.112C202.48 178.916 201.967 180.055 201.743 181.531H210.951ZM201.644 184.475C201.723 185.516 201.907 186.418 202.197 187.182C202.487 187.933 202.869 188.559 203.343 189.06C203.818 189.547 204.377 189.916 205.023 190.166C205.682 190.404 206.406 190.522 207.197 190.522C207.987 190.522 208.666 190.43 209.232 190.245C209.812 190.061 210.312 189.857 210.734 189.633C211.169 189.409 211.544 189.205 211.86 189.02C212.19 188.836 212.506 188.744 212.809 188.744C213.217 188.744 213.52 188.895 213.718 189.198L215.121 190.977C214.581 191.609 213.975 192.142 213.303 192.577C212.631 192.999 211.926 193.341 211.188 193.605C210.464 193.855 209.72 194.033 208.955 194.138C208.204 194.244 207.473 194.296 206.762 194.296C205.352 194.296 204.042 194.066 202.83 193.605C201.618 193.131 200.564 192.439 199.668 191.53C198.772 190.608 198.067 189.475 197.553 188.131C197.04 186.774 196.783 185.206 196.783 183.428C196.783 182.045 197.007 180.747 197.455 179.535C197.902 178.31 198.541 177.249 199.371 176.353C200.214 175.444 201.235 174.726 202.434 174.2C203.646 173.673 205.01 173.409 206.525 173.409C207.803 173.409 208.982 173.613 210.062 174.022C211.142 174.43 212.071 175.029 212.848 175.82C213.626 176.597 214.232 177.559 214.666 178.705C215.114 179.838 215.338 181.136 215.338 182.598C215.338 183.336 215.259 183.836 215.101 184.1C214.943 184.35 214.64 184.475 214.192 184.475H201.644ZM236.383 173.725L228.34 194H223.914L215.871 173.725H219.902C220.271 173.725 220.574 173.811 220.811 173.982C221.062 174.153 221.226 174.371 221.305 174.634L225.218 185.463C225.429 186.096 225.613 186.715 225.771 187.321C225.929 187.927 226.068 188.533 226.186 189.139C226.318 188.533 226.463 187.927 226.621 187.321C226.779 186.715 226.97 186.096 227.194 185.463L231.186 174.634C231.278 174.371 231.443 174.153 231.68 173.982C231.917 173.811 232.2 173.725 232.53 173.725H236.383ZM243.648 173.725V194H238.747V173.725H243.648ZM244.32 167.817C244.32 168.238 244.234 168.634 244.063 169.002C243.892 169.371 243.661 169.694 243.371 169.971C243.095 170.247 242.765 170.471 242.383 170.643C242.001 170.801 241.593 170.88 241.158 170.88C240.736 170.88 240.335 170.801 239.953 170.643C239.584 170.471 239.261 170.247 238.984 169.971C238.708 169.694 238.484 169.371 238.312 169.002C238.154 168.634 238.075 168.238 238.075 167.817C238.075 167.382 238.154 166.974 238.312 166.592C238.484 166.21 238.708 165.88 238.984 165.604C239.261 165.327 239.584 165.109 239.953 164.951C240.335 164.78 240.736 164.695 241.158 164.695C241.593 164.695 242.001 164.78 242.383 164.951C242.765 165.109 243.095 165.327 243.371 165.604C243.661 165.88 243.892 166.21 244.063 166.592C244.234 166.974 244.32 167.382 244.32 167.817ZM261.291 181.531C261.291 180.898 261.199 180.306 261.014 179.752C260.843 179.186 260.579 178.692 260.224 178.27C259.868 177.849 259.413 177.519 258.86 177.282C258.32 177.032 257.688 176.907 256.963 176.907C255.553 176.907 254.44 177.309 253.624 178.112C252.82 178.916 252.306 180.055 252.082 181.531H261.291ZM251.983 184.475C252.062 185.516 252.247 186.418 252.537 187.182C252.826 187.933 253.209 188.559 253.683 189.06C254.157 189.547 254.717 189.916 255.362 190.166C256.021 190.404 256.746 190.522 257.536 190.522C258.327 190.522 259.005 190.43 259.572 190.245C260.151 190.061 260.652 189.857 261.073 189.633C261.508 189.409 261.884 189.205 262.2 189.02C262.529 188.836 262.845 188.744 263.148 188.744C263.557 188.744 263.86 188.895 264.057 189.198L265.46 190.977C264.92 191.609 264.314 192.142 263.642 192.577C262.97 192.999 262.266 193.341 261.528 193.605C260.803 193.855 260.059 194.033 259.295 194.138C258.544 194.244 257.813 194.296 257.101 194.296C255.692 194.296 254.381 194.066 253.169 193.605C251.957 193.131 250.903 192.439 250.007 191.53C249.111 190.608 248.407 189.475 247.893 188.131C247.379 186.774 247.122 185.206 247.122 183.428C247.122 182.045 247.346 180.747 247.794 179.535C248.242 178.31 248.881 177.249 249.711 176.353C250.554 175.444 251.575 174.726 252.774 174.2C253.986 173.673 255.349 173.409 256.864 173.409C258.142 173.409 259.321 173.613 260.402 174.022C261.482 174.43 262.411 175.029 263.188 175.82C263.965 176.597 264.571 177.559 265.006 178.705C265.454 179.838 265.678 181.136 265.678 182.598C265.678 183.336 265.599 183.836 265.441 184.1C265.282 184.35 264.979 184.475 264.532 184.475H251.983ZM297.625 173.725L291.183 194H287.27C286.822 194 286.513 193.71 286.341 193.131L282.705 181.412C282.587 181.017 282.475 180.628 282.37 180.246C282.277 179.851 282.198 179.456 282.132 179.061C282.053 179.456 281.961 179.858 281.856 180.266C281.764 180.661 281.658 181.057 281.54 181.452L277.844 193.131C277.686 193.71 277.337 194 276.797 194H273.042L266.62 173.725H270.513C270.869 173.725 271.172 173.811 271.422 173.982C271.672 174.153 271.837 174.371 271.916 174.634L274.821 185.463C274.966 186.056 275.091 186.636 275.196 187.202C275.315 187.769 275.414 188.335 275.493 188.902C275.638 188.335 275.789 187.769 275.947 187.202C276.118 186.636 276.296 186.056 276.481 185.463L279.84 174.595C279.919 174.331 280.071 174.114 280.295 173.943C280.532 173.771 280.815 173.686 281.144 173.686H283.298C283.641 173.686 283.931 173.771 284.168 173.943C284.418 174.114 284.583 174.331 284.662 174.595L287.922 185.463C288.094 186.056 288.252 186.642 288.397 187.222C288.555 187.788 288.706 188.355 288.851 188.921C289.022 187.802 289.266 186.649 289.582 185.463L292.566 174.634C292.658 174.371 292.823 174.153 293.06 173.982C293.297 173.811 293.581 173.725 293.91 173.725H297.625ZM312.72 181.531C312.72 180.898 312.628 180.306 312.444 179.752C312.272 179.186 312.009 178.692 311.653 178.27C311.297 177.849 310.843 177.519 310.29 177.282C309.749 177.032 309.117 176.907 308.393 176.907C306.983 176.907 305.87 177.309 305.053 178.112C304.249 178.916 303.736 180.055 303.512 181.531H312.72ZM303.413 184.475C303.492 185.516 303.676 186.418 303.966 187.182C304.256 187.933 304.638 188.559 305.112 189.06C305.586 189.547 306.146 189.916 306.792 190.166C307.451 190.404 308.175 190.522 308.966 190.522C309.756 190.522 310.435 190.43 311.001 190.245C311.581 190.061 312.081 189.857 312.503 189.633C312.938 189.409 313.313 189.205 313.629 189.02C313.959 188.836 314.275 188.744 314.578 188.744C314.986 188.744 315.289 188.895 315.487 189.198L316.89 190.977C316.35 191.609 315.744 192.142 315.072 192.577C314.4 192.999 313.695 193.341 312.957 193.605C312.233 193.855 311.488 194.033 310.724 194.138C309.973 194.244 309.242 194.296 308.531 194.296C307.121 194.296 305.81 194.066 304.598 193.605C303.386 193.131 302.333 192.439 301.437 191.53C300.541 190.608 299.836 189.475 299.322 188.131C298.808 186.774 298.552 185.206 298.552 183.428C298.552 182.045 298.776 180.747 299.223 179.535C299.671 178.31 300.31 177.249 301.14 176.353C301.983 175.444 303.004 174.726 304.203 174.2C305.415 173.673 306.779 173.409 308.294 173.409C309.572 173.409 310.751 173.613 311.831 174.022C312.911 174.43 313.84 175.029 314.617 175.82C315.395 176.597 316.001 177.559 316.435 178.705C316.883 179.838 317.107 181.136 317.107 182.598C317.107 183.336 317.028 183.836 316.87 184.1C316.712 184.35 316.409 184.475 315.961 184.475H303.413ZM324.979 177.243C325.611 176.031 326.362 175.082 327.232 174.397C328.101 173.699 329.129 173.35 330.315 173.35C331.25 173.35 332.001 173.554 332.567 173.962L332.251 177.618C332.185 177.855 332.086 178.027 331.955 178.132C331.836 178.224 331.671 178.27 331.461 178.27C331.263 178.27 330.967 178.237 330.571 178.171C330.189 178.106 329.814 178.073 329.445 178.073C328.905 178.073 328.424 178.152 328.002 178.31C327.581 178.468 327.199 178.698 326.856 179.001C326.527 179.291 326.231 179.647 325.967 180.069C325.717 180.49 325.48 180.971 325.256 181.511V194H320.375V173.725H323.24C323.741 173.725 324.09 173.817 324.287 174.002C324.485 174.173 324.617 174.489 324.683 174.95L324.979 177.243Z" fill="white"/>
<path d="M224.678 0H124.322C115.859 0 109 6.93033 109 15.4816V116.887C109 125.438 115.859 132.368 124.322 132.368H209.237L205.266 118.517L214.83 127.428L223.858 135.837L240 150V116.887V109.358V15.4816C240 6.93033 233.141 0 224.678 0Z" fill="#7289DA"/>
<path d="M189.082 29.3999L134.047 85.0029L152.4 103.545L207.434 47.9421L193.672 34.0372L143.227 85.0029L141.232 82.9875L191.677 32.0221L189.082 29.3999Z" fill="white"/>
<path d="M150.702 105.26L132.349 86.7183L129.378 108.263L150.702 105.26Z" fill="white"/>
<path d="M190.895 27.2878L197.977 20.1329C199.872 18.2186 202.944 18.2186 204.839 20.1329L216.33 31.7427C218.225 33.6572 218.225 36.7608 216.33 38.6752L209.248 45.8301L190.895 27.2878Z" fill="white"/>
</svg>
