<svg width="255" height="196" viewBox="0 0 255 196" fill="none" xmlns="http://www.w3.org/2000/svg">
<path d="M13.1798 160.492H0V175.181L8.78075 183.001V168.739H13.4793C16.4626 168.739 17.9054 170.171 17.9054 172.442V183.354C17.9054 185.625 16.5122 187.156 13.4793 187.156H0V195.451H13.1798C20.2439 195.499 26.8574 191.995 26.8574 183.947V172.194C26.8574 164.049 20.2439 160.492 13.1798 160.492ZM58.1944 173.578C55.4582 172.985 53.6196 171.998 53.5201 170.319C53.6689 166.269 59.9863 166.122 63.6654 170.023L69.4849 165.579C65.855 161.185 61.7267 160 57.4495 160C50.9836 160 44.7171 163.604 44.7171 170.466C44.7171 177.133 49.8882 180.688 55.5586 181.577C58.4439 181.972 61.676 183.107 61.5776 185.081C61.3289 188.835 53.5687 188.637 50.0384 184.391L44.4175 189.625C47.7002 193.822 52.1774 195.945 56.4054 195.945C62.8699 195.945 70.0317 192.242 70.3316 185.477C70.7294 176.886 64.4615 174.712 58.1944 173.578ZM31.6353 195.451H40.5384V160.492H31.6353V195.451Z" fill="white"/>
<path d="M84.2556 196L69.3623 160.857H78.456L87.8282 184.236L97.2005 160.857H105.969L91.0295 196H84.2556Z" fill="white"/>
<path d="M107.834 196V160.857H116.371V196H107.834Z" fill="white"/>
<path d="M120.955 196V160.857H144.061V167.936H129.121V174.615H142.994V181.694H129.121V188.922H144.061V196H120.955Z" fill="white"/>
<path d="M157.402 196L145.664 160.857H154.387L161.207 182.89L168.584 160.857H174.616L181.668 183.339L188.813 160.857H197.026L185.194 196H178.374L171.368 174.864L164.223 196H157.402Z" fill="white"/>
<path d="M198.324 196V160.857H221.43V167.936H206.49V174.615H220.363V181.694H206.49V188.922H221.43V196H198.324Z" fill="white"/>
<path d="M225.492 196V160.857H241.22C244.932 160.857 247.793 161.838 249.804 163.798C251.845 165.726 252.866 168.417 252.866 171.874C252.866 174.499 252.247 176.709 251.01 178.503C249.804 180.265 248.04 181.494 245.721 182.192C247.453 182.691 248.845 183.97 249.896 186.03L255 196H245.628L239.967 184.834C239.596 184.136 239.117 183.638 238.529 183.339C237.972 183.04 237.323 182.89 236.58 182.89H234.029V196H225.492ZM234.029 176.41H239.689C243.061 176.41 244.746 174.981 244.746 172.123C244.746 169.298 243.061 167.886 239.689 167.886H234.029V176.41Z" fill="white"/>
<path d="M72.3443 2H183.656C190.473 2 196 7.52672 196 14.3443V125.656C196 132.473 190.473 138 183.656 138H72.3443C65.5267 138 60 132.473 60 125.656V14.3443C60 7.52671 65.5267 2 72.3443 2Z" fill="#5865F2" stroke="#2F3136" stroke-width="4"/>
<path d="M136.701 37.9892C133.484 42.9122 125.154 48.0248 117.771 51.8118C118.15 52.1907 118.908 53.3267 119.286 53.3267C121.368 52.38 123.451 51.6226 125.533 50.6759C129.697 48.7822 133.862 46.3207 137.648 43.4804C145.22 37.4211 148.059 19.2432 153.549 18.8645C156.767 18.8645 159.796 23.5983 162.068 25.6811L165.285 22.4622C165.475 22.2728 162.824 19.8112 162.636 19.6219C159.417 16.4029 155.631 12.9946 150.521 14.8881C143.706 17.539 140.488 32.4979 136.701 37.9892ZM154.306 19.0539C154.306 19.0539 154.496 19.0539 154.306 19.0539V19.0539ZM151.845 19.4326C151.656 19.4326 151.656 19.4326 151.845 19.4326V19.4326ZM71.7723 124.712C71.2044 125.47 71.0152 126.227 71.3937 126.606C71.7723 126.985 72.7188 126.796 73.2867 126.227L77.8299 123.008L74.9904 120.168L71.7723 124.712Z" fill="#202225"/>
<path d="M121.115 59.1265L138.874 76.8853L183.082 29.6542L168.346 14.9181L121.115 59.1265Z" fill="white" stroke="#2F3136" stroke-width="3" stroke-linecap="square"/>
<path d="M84.9672 97.8566L122.416 60.8197L137.18 75.4222L99.7311 112.459L84.9672 97.8566Z" fill="white" stroke="#2F3136" stroke-width="3" stroke-linecap="square"/>
<path d="M73.4918 118.659L79.3415 124.508L99.9099 112.809L85.1912 98.0901L73.4918 118.659ZM126.328 53.9344L144.066 71.672L138.594 77.1446L120.855 59.4065L126.328 53.9344Z" fill="#2F3136"/>
<path d="M169.312 15.8807L182.119 28.6885C185.698 25.1098 185.698 19.4593 182.119 15.8807C178.541 12.302 172.89 12.302 169.312 15.8807Z" fill="#2F3136"/>
<path d="M165.869 16.4311L168.529 13.7705L184.23 29.4706L181.569 32.1312L165.869 16.4311Z" fill="#2F3136"/>
</svg>
